<?xml version="1.0" encoding="utf-8"?>
<!-- Svg Vector Icons : http://www.onlinewebfonts.com/icon -->
<!DOCTYPE svg PUBLIC "-//W3C//DTD SVG 1.1//EN" "http://www.w3.org/Graphics/SVG/1.1/DTD/svg11.dtd">
<svg version="1.1" xmlns="http://www.w3.org/2000/svg" xmlns:xlink="http://www.w3.org/1999/xlink" x="0px" y="0px" viewBox="0 0 1000 1000" enable-background="new 0 0 1000 1000" xml:space="preserve">
<metadata> Svg Vector Icons : http://www.onlinewebfonts.com/icon </metadata>
<g><g transform="translate(0.000000,511.000000) scale(0.100000,-0.100000)"><path d="M8433.9,4986.4c-377.9-78.7-778.7-248.6-1067.9-456.6c-83.7-60.9-974-936-1978.5-1945.5C3421.7,613.4,3431.8,621,3315.2,243.1c-63.4-202.9-76.1-591-25.4-761l30.4-98.9l-758.4-763.5l-755.9-761l48.2-405.8c27.9-223.2,60.9-410.9,73.6-421.1c12.7-7.6,202.9-40.6,421.1-71l395.7-58.3l755.9,755.9l755.9,755.9l162.3-30.4c375.4-68.5,773.6-5.1,1067.9,172.5c96.4,58.3,730.5,679.8,2039.4,1988.6c2049.5,2054.6,2006.4,2006.4,2189,2463c144.6,365.2,182.6,553,185.2,913.1c0,281.5-7.6,350-55.8,471.8c-111.6,281.6-281.6,451.5-560.6,558C9101,5021.9,8687.5,5039.6,8433.9,4986.4z M9194.8,4557.7c248.6-114.2,327.2-291.7,309.5-692.5c-10.1-228.3-27.9-317.1-101.5-532.7c-187.7-545.4-98.9-443.9-2176.3-2521.3C5625.9-789.3,5341.9-1063.2,5220.1-1121.6c-446.4-210.6-895.4-139.5-1235.3,192.8c-164.9,162.4-246,296.8-296.8,489.5c-68.5,263.8-43.1,504.8,81.2,768.6c58.3,121.8,334.8,408.4,1869.4,1950.6c991.8,996.9,1874.5,1861.8,1960.8,1922.7c197.8,142.1,537.8,301.9,773.6,365.3c119.2,30.4,273.9,48.2,438.8,48.2C9027.4,4618.6,9085.8,4608.4,9194.8,4557.7z M3688-1215.4l177.6-177.6l-634.1-634.1l-634.1-636.7l-101.5,15.2c-248.6,38-233.4,25.4-253.7,195.3l-17.8,154.7l629.1,629.1c347.5,347.5,636.7,631.6,644.3,631.6C3505.4-1037.9,3591.7-1119,3688-1215.4z"/><path d="M6244.9,1645.8C5461.1,862,4804.1,187.3,4788.9,146.7C4728-0.4,4890.3-162.8,5037.5-101.9c40.6,15.2,715.3,672.2,1499.1,1456C7911.4,2728.9,7962.1,2784.7,7962.1,2876c0,60.9-17.8,111.6-50.7,144.6s-83.7,50.7-144.6,50.7C7675.5,3071.3,7619.7,3020.6,6244.9,1645.8z"/><path d="M583.3-566.1c-514.9-517.4-517.5-517.4-456.6-555.5c547.9-350.1,1478.8-930.9,1491.5-930.9c20.3,0,1499.1,1478.8,1499.1,1501.6c0,7.6-53.3,27.9-119.2,43.1C2868.7-479.8,1202.2-79.1,1138.8-61.3C1113.5-53.7,910.5-238.9,583.3-566.1z M1826.2-634.6l535.2-129.4l-388.1-390.6c-215.6-215.6-403.3-385.5-421.1-380.5c-78.6,30.4-819.3,512.4-819.3,535.2c0,43.1,466.7,494.6,512.4,494.6C1268.2-505.2,1529.5-563.5,1826.2-634.6z"/><path d="M3571.4-2521.7l-750.8-745.7l479.4-753.3c261.3-416,487-766,497.1-776.2c10.2-10.1,248.6,210.5,530.1,494.6l509.8,512.4l-246,1007c-134.4,555.5-248.6,1009.5-256.2,1009.5C4327.2-1773.5,3984.8-2110.8,3571.4-2521.7z M4256.2-3097.5c71-296.8,129.4-552.9,129.4-565.6c0-15.2-114.1-139.5-251.1-276.5l-251.1-251.1l-119.2,187.7c-66,104-187.7,291.7-268.9,418.5c-83.7,126.8-149.7,241-149.7,253.7c0,25.4,738.1,771.1,763.5,771.1C4119.2-2559.8,4185.2-2803.3,4256.2-3097.5z"/></g></g>
</svg>