<?xml version="1.0" encoding="utf-8"?>
<!-- Svg Vector Icons : http://www.onlinewebfonts.com/icon -->
<!DOCTYPE svg PUBLIC "-//W3C//DTD SVG 1.1//EN" "http://www.w3.org/Graphics/SVG/1.1/DTD/svg11.dtd">
<svg version="1.1" xmlns="http://www.w3.org/2000/svg" xmlns:xlink="http://www.w3.org/1999/xlink" x="0px" y="0px" viewBox="0 0 1000 1000" enable-background="new 0 0 1000 1000" xml:space="preserve">
<metadata> Svg Vector Icons : http://www.onlinewebfonts.com/icon </metadata>
<g><g><g><path d="M500,10C229.8,10,10,229.8,10,500c0,270.2,219.8,490,490,490c270.2,0,490-219.8,490-490C990,229.8,770.2,10,500,10z M500,58.6c54.3,0,107.4,9.9,157.9,29.3c-20.3,17.6-44.1,26.4-70.7,26.4c-38,0-83.4-18.4-131.9-53.4C470.5,59.4,485.5,58.6,500,58.6z M500,941.4c-50.3,0-99.4-8.4-146.3-25c10,0.6,20.2,0.9,30.5,0.9c100.4,0,202.8-28.9,301.9-56.8c34.2-9.7,69.4-19.6,104-28.1C709.5,902.8,607.2,941.4,500,941.4z M849.7,768.9c-0.9,0.1-1.9,0.2-2.8,0.4c-55.1,10-110.7,26.1-169.6,43.2c-95.5,27.7-194.2,56.4-289.8,56.4c-66.3,0-124.3-13.7-177.6-41.8c-3-1.6-6.1-2.5-9.2-2.9c-15.8-14.6-30.6-30.4-44.1-47.1c18,3.9,36.7,5.8,56.5,5.8c62.2,0,125.3-19.4,186.3-38.1c40.8-12.5,82.9-25.4,124-32.3c17.3,28,60.9,45.9,112.5,45.9c45.9,0,86.2-14.4,106.4-37.8c37,18,76.3,29.9,117.1,35.3C856.4,760.1,853.2,764.4,849.7,768.9z M888.1,710c-46.9-3-91.7-15.7-133.5-37.7c-9.5-35.7-57.8-60.4-118.7-60.4c-55.8,0-101.8,21-115.9,52.5c-38.7,6.9-79.4,19.7-118.7,32.2c-60.5,19.1-123,38.9-182.8,38.9c-39.1,0-73.3-8.4-104.8-25.6c-0.8-0.5-1.7-0.9-2.6-1.2c-15.8-29.4-28.3-60.5-37-92.6c38.1-7.9,74.4-22.5,108-43.6c14.7,11.4,33.6,17.7,53.6,17.7c43.7,0,79.2-29.9,79.2-66.6c0-1.8-0.1-3.6-0.3-5.5c19.6-2.6,40-3.9,60.7-3.9c88.2,0,176.6,23.6,262.1,46.3c86.8,23.1,176.5,47,267.2,47c7.9,0,15.7-0.2,23.5-0.5C919.2,643,905.7,677.6,888.1,710z M941.4,500c0,19-1.3,38.5-3.9,58c-11.1,0.7-22.6,1.1-34.1,1.1c0,0,0,0,0,0c-90.4,0-180-23.4-266.6-46.1c-86.9-22.7-176.8-46.3-267.7-46.3c-28.3,0-55,2.2-81.4,6.7c-14.5-10.6-32.8-16.4-52-16.4c-43.7,0-79.2,29.9-79.2,66.6c0,2.3,0.2,4.8,0.5,7.3c-29.1,18.1-59.6,30.5-93,37.7c-2.3-14.4-3.8-28.6-4.7-42.5c38.8-13.3,66.2-44.7,73.7-84.8c7.7-41.4-7.8-83.5-40.5-111c13.2-31.5,30-61.5,50.1-89.2c16.2-7.6,33.4-11.4,51.1-11.4c59.4,0,116.6,41.4,169.4,86.2c60.5,51.2,114.8,90,182.9,112.9c43.5,14.6,89.7,22,137.2,22c86.1,0,171.6-24.8,241.7-70C935.9,419.7,941.4,459.8,941.4,500z M908.7,333.5c-64.8,44-144.4,68.2-224.7,68.2c-56.7,0-113.4-12.1-164.1-35c-40-18.1-77.8-48.7-117.9-81.1c-63.6-51.5-129.4-104.8-206.1-104.8c-0.2,0-0.3,0-0.5,0c6.2-5.9,12.6-11.6,19.1-17.2c0.4-0.1,0.9-0.1,1.3-0.3c10.1-2.6,20.4-3.9,30.6-3.9c57.2,0,108.5,40,155.4,83.2c50.4,46.4,97.2,86.9,159.8,111.3c39.7,15.5,82.4,23.3,127,23.3c76.1,0,150.7-23.1,210.8-65.1C902.6,319,905.7,326,908.7,333.5z M690,328c-50.9,0-101.3-12-145.9-34.8c-37.3-19-71.5-49.9-104.7-79.8c-46.8-42.2-95.1-85.8-154.4-98.9c33.4-18.7,69.1-32.9,106.3-42.4c43.8,37.4,92.8,73.5,153.6,86.1c12.3,2.5,24.9,3.8,37.4,3.8c46,0,87.8-16.7,117.7-47.1c1.8-1.9,3.3-3.9,4.5-6.1c70.7,37.1,129.9,92.4,171.8,160.4C822.7,307.2,756.8,328,690,328z"/><path d="M697.7,165.5c-13.9,0-26.4,4.6-36.3,13.4c-24.6,21.8-23.8,63,1.8,91.8c14.5,16.4,34.9,26.1,54.6,26.1c13.9,0,26.4-4.6,36.3-13.4c12-10.7,18.4-26.2,17.9-43.7c-0.5-17.2-7.4-34.3-19.7-48.1C737.8,175.3,717.4,165.5,697.7,165.5z"/></g></g><g></g><g></g><g></g><g></g><g></g><g></g><g></g><g></g><g></g><g></g><g></g><g></g><g></g><g></g><g></g></g>
</svg>