<?xml version="1.0" encoding="utf-8"?>
<!-- Svg Vector Icons : http://www.onlinewebfonts.com/icon -->
<!DOCTYPE svg PUBLIC "-//W3C//DTD SVG 1.1//EN" "http://www.w3.org/Graphics/SVG/1.1/DTD/svg11.dtd">
<svg version="1.1" xmlns="http://www.w3.org/2000/svg" xmlns:xlink="http://www.w3.org/1999/xlink" x="0px" y="0px" viewBox="0 0 1000 1000" enable-background="new 0 0 1000 1000" xml:space="preserve">
<metadata> Svg Vector Icons : http://www.onlinewebfonts.com/icon </metadata>
<g><g transform="translate(0.000000,512.000000) scale(0.100000,-0.100000)"><path d="M4883.6,4965.3c-53.6-55.5-55.5-61.3-55.5-248.9v-193.4h-111c-86.1,0-120.6-9.6-153.2-38.3c-23-23-42.1-44-42.1-47.9c0-5.7-78.5-281.4-172.3-614.5c-103.4-356.1-168.5-618.4-162.7-641.3c24.9-78.5,86.2-113,204.9-113h111v-497.8v-497.8h-199.1c-298.7,0-279.5,45.9-279.5-700.7V770.8h-114.9c-97.6,0-124.4-7.7-162.7-47.9c-26.8-24.9-47.9-67-47.9-93.8c0-49.8-7.7-61.3-390.5-555.2l-250.8-323.5l-11.5,486.3c-11.5,576.3-26.8,635.6-199.1,813.6c-210.6,214.4-472.9,268-721.8,145.5c-149.3-72.8-266.1-193.4-336.9-344.6l-51.7-109.1l-5.7-1357.3l-5.8-1355.4l-712.2-922.8c-392.5-505.4-758.1-980.2-813.6-1051c-114.9-149.3-126.4-218.2-51.7-291c91.9-93.8,116.8-84.2,867.2,382.9c382.9,237.4,696.9,430.8,700.7,430.8c3.8,0,11.5-26.8,19.1-61.3c15.3-72.8,80.4-149.3,130.2-149.3c32.5,0,34.5-21.1,34.5-275.7c0-342.7,9.6-359.9,195.3-375.2l120.6-9.6l9.6-206.8c9.6-189.6,13.4-212.5,55.5-245.1c63.2-51.7,164.6-47.9,222.1,11.5c44,44,47.9,59.3,47.9,248.9v201h114.9c97.6,0,124.4,7.7,162.7,47.9c45.9,44,47.9,53.6,47.9,325.5c0,256.5,1.9,277.6,34.5,277.6c19.1,0,55.5,23,82.3,49.8c45.9,47.9,45.9,51.7,51.7,520.7l5.7,472.9l308.2,191.4c170.4,105.3,317.8,195.3,325.5,197.2c7.7,3.8,15.3-260.4,15.3-585.8v-593.5l59.4-49.8c57.4-49.8,61.3-49.8,400.1-49.8h340.8l7.7-189.5c5.7-170.4,11.5-195.3,51.7-239.3c40.2-42.1,63.2-49.8,158.9-49.8h111v-95.7c0-178,90-271.9,222.1-229.7c82.3,28.7,122.5,101.5,122.5,229.7v95.7h111c95.7,0,118.7,7.7,158.9,49.8c40.2,44.1,45.9,68.9,51.7,239.3l7.7,189.5h342.7h342.7l57.4,53.6l57.4,51.7v589.6c0,325.5,7.7,587.8,15.3,583.9c9.6-3.8,155.1-91.9,325.4-197.2l308.2-191.4l5.7-472.9c5.7-469,5.7-472.9,51.7-520.7c26.8-26.8,63.2-49.8,82.3-49.8c32.5,0,34.5-21.1,34.5-277.6c0-271.9,1.9-281.4,47.9-325.5c38.3-40.2,65.1-47.9,162.7-47.9h114.9v-201c0-189.6,3.8-204.9,47.9-248.9c57.4-59.3,158.9-63.2,222.1-11.5c42.1,32.5,45.9,55.5,55.5,245.1l9.6,206.8l120.6,9.6c185.7,15.3,195.3,32.5,195.3,375.2c0,254.6,1.9,275.7,34.5,275.7c49.8,0,114.9,76.6,130.2,149.3c7.7,34.5,15.3,61.3,19.2,61.3c3.8,0,317.8-193.4,700.7-430.8c750.5-467.1,775.4-476.7,867.2-382.9c68.9,67,61.3,141.7-23,252.7c-38.3,49.8-403.9,524.6-811.7,1051L8276-1970.7l-5.7,1355.4l-5.7,1357.3l-51.7,109.1c-70.8,151.2-187.6,271.8-336.9,344.6c-105.3,51.7-147.4,61.3-262.3,61.3c-114.9,0-157-9.6-262.3-61.3c-149.3-72.8-266.1-193.4-336.9-344.6c-49.8-107.2-51.7-118.7-61.3-606.9l-9.6-495.8L6713.8,43.3c-386.7,501.6-411.6,536-411.6,585.8c0,26.8-21.1,68.9-47.9,93.8c-38.3,40.2-65.1,47.9-162.7,47.9h-114.9v603.1v605l-47.9,45.9c-42.1,44-59.3,47.9-239.3,47.9h-191.4v497.8v497.8h111c120.6,1.9,164.6,24.9,193.4,103.4c17.2,42.1-7.7,149.3-153.2,658.6c-118.7,419.3-183.8,620.3-212.5,649c-34.5,36.4-61.3,44-153.2,44h-111v193.4c0,187.6-1.9,193.4-55.5,248.9c-38.3,38.3-74.7,55.5-116.8,55.5C4958.2,5020.9,4921.9,5003.6,4883.6,4965.3z M5320.1,3795.6l114.9-402h-434.6h-434.6l114.9,402l114.9,402h204.8h204.8L5320.1,3795.6z M5172.6,2570.4v-478.6h-172.3H4828v478.6V3049h172.3h172.3V2570.4z M5651.3,1259V770.8h-650.9h-650.9V1259v488.2h650.9h650.9V1259z M2580.5,883.7c93.8-57.4,126.4-147.4,137.8-384.8l9.6-206.8h-340.8h-340.8l9.6,216.3c7.7,233.6,38.3,315.9,134,375.2C2297.1,950.7,2473.3,950.7,2580.5,883.7z M7806.9,883.7c95.7-57.4,128.3-149.3,137.8-384.8l9.6-206.8h-340.8h-340.8l9.6,206.8c11.5,287.2,65.1,384.8,235.5,426.9C7600.2,946.9,7738,925.8,7806.9,883.7z M5976.7,119.9v-325.5h-976.4H4024v325.5v325.5h976.4h976.4V119.9z M6635.3-385.6l317.8-411.6v-698.8c0-386.7-3.8-700.7-7.7-700.7c-15.3,0-574.3,348.4-610.7,379c-30.6,26.8-32.5,91.9-30.6,936.2c0,497.8,3.8,905.5,5.8,905.5C6313.7,24.1,6459.2-161.6,6635.3-385.6z M3694.7-892.9c0-813.7-1.9-901.7-30.6-926.6c-36.4-30.6-595.4-377.1-608.8-377.1c-3.8,0-7.7,315.9-7.7,700.7v698.8l310.1,402C3528.1-175,3673.6,5,3679.4,5C3687,5,3692.8-398.9,3694.7-892.9z M2712.6-1679.7V-3307h-325.5h-325.5l-7.7,1627.3l-5.8,1627.3h331.2h333.1V-1679.7z M7946.7-1679.7L7939-3307h-325.5h-325.5v1627.3V-52.4h333.1h331.2L7946.7-1679.7z M5976.7-1507.4v-976.4h-170.4h-170.4l-44,91.9c-57.4,116.8-212.5,270-333.1,329.3c-78.5,40.2-124.4,47.9-258.5,47.9s-180-7.7-258.4-47.9c-120.6-59.3-275.7-212.5-333.1-329.3l-44-91.9h-170.4H4024v976.4v976.4h976.4h976.4V-1507.4z M5153.5-2372.8c63.2-32.6,97.6-67,130.2-130.2c38.3-76.6,42.1-112.9,42.1-358v-273.7h-327.4h-327.4l7.7,304.4c5.7,271.8,9.6,312.1,45.9,359.9c49.8,68.9,189.5,139.7,275.7,139.7C5038.6-2330.6,5107.6-2349.8,5153.5-2372.8z M1726.6-2774.8v-254.6l-310.1-191.4c-495.8-306.3-465.2-289.1-434.6-245.1c72.7,101.5,731.3,943.8,737.1,943.8C1722.8-2522.1,1726.6-2637,1726.6-2774.8z M8666.5-3010.3c187.6-241.2,350.3-451.8,361.8-467.1c23-30.6,1.9-19.1-444.2,256.5l-310.1,191.4v258.5c0,220.2,3.8,252.7,26.8,229.7C8314.3-2556.5,8480.8-2767.1,8666.5-3010.3z M4345.6-2985.4l-5.7-158.9l-157-5.7l-158.9-5.7v164.6v162.7h162.7h164.6L4345.6-2985.4z M5976.7-2991.1v-164.6l-157,5.7l-158.9,5.7l-5.7,158.9l-5.7,157H5814h162.7V-2991.1z M5172.6-3555.9v-76.6h-172.3H4828v76.6v76.6h172.3h172.3V-3555.9z M2549.8-3804.8v-153.2h-162.7h-162.7v153.2v153.1h162.7h162.7V-3804.8z M7776.3-3804.8v-153.2h-162.7h-162.7v153.2v153.1h162.7h162.7V-3804.8z"/><path d="M4280.5,265.4c-128.3-57.4-126.4-237.4,3.8-291c109.1-46,218.2,28.7,218.2,145.5C4502.6,238.6,4389.6,311.3,4280.5,265.4z"/><path d="M4931.4,265.4c-126.4-55.5-118.7-250.8,9.6-294.8c193.4-67,314,216.3,124.4,294.8C4990.8,296,5004.2,296,4931.4,265.4z"/><path d="M5613,278.8c-155.1-57.4-151.2-262.3,5.7-317.8c19.1-7.7,63.2-1.9,97.6,13.4c134,55.5,132.1,235.5,0,291c-36.4,15.3-67,26.8-68.9,24.9C5643.6,290.2,5628.3,284.5,5613,278.8z"/><path d="M2281.8-1235.6c-72.7-74.7-76.6-158.9-9.6-224c97.6-99.6,277.6-30.6,277.6,103.4c0,74.6-68.9,151.2-147.4,166.5C2350.7-1180.1,2331.6-1187.7,2281.8-1235.6z"/><path d="M2272.3-1727.6c-103.4-101.5-23-277.6,126.4-277.6c51.7,0,151.2,101.5,151.2,153.1C2549.8-1702.7,2375.6-1624.2,2272.3-1727.6z"/><path d="M2345-2173.7c-24.9-3.8-61.3-28.7-82.3-55.5c-126.4-160.8,95.7-352.2,239.3-206.8C2616.9-2323,2511.6-2148.8,2345-2173.7z"/><path d="M2310.5-2679.1c-145.5-84.2-93.8-304.4,70.8-302.5c70.8,1.9,112.9,26.8,145.5,90c36.4,67,26.8,120.6-32.5,180C2435-2654.2,2373.7-2642.7,2310.5-2679.1z"/><path d="M7554.2-1201.1c-162.7-65.1-116.8-306.3,59.3-306.3c151.2,0,214.4,160.8,107.2,269.9C7663.3-1180.1,7625.1-1172.4,7554.2-1201.1z"/><path d="M7498.7-1729.5c-65.1-70.8-63.2-149.3,7.7-220.2c72.7-72.8,141.7-72.8,214.4,0c70.8,72.7,74.7,157,7.7,222.1C7663.3-1660.6,7560-1662.5,7498.7-1729.5z"/><path d="M7571.5-2173.7c-24.9-3.8-61.3-28.7-82.3-55.5c-86.2-109.1-13.4-258.5,124.4-258.5c57.4,0,86.2,11.5,118.7,51.7C7837.6-2313.4,7736.1-2148.8,7571.5-2173.7z"/><path d="M7506.4-2711.6c-30.6-30.6-55.5-74.6-55.5-97.6c0-151.2,178-229.7,277.6-122.5c65.1,70.8,63.2,149.4-7.7,220.2C7648-2638.9,7579.1-2638.9,7506.4-2711.6z"/><path d="M7665.3,4153.6c-44-47.9-55.5-143.6-23-202.9c30.6-59.3,124.4-88.1,193.3-57.4c67,26.8,120.6,126.4,99.6,183.8C7893.1,4197.6,7745.7,4239.8,7665.3,4153.6z"/><path d="M811.5,3183c-88.1-82.3-70.8-204.9,36.4-266.1c97.6-55.5,227.8,26.8,227.8,145.5C1075.7,3196.4,909.2,3273,811.5,3183z"/><path d="M2923.2,2350.2c-61.3-59.4-61.3-143.6-1.9-212.5c134-158.9,367.6,45.9,239.3,210.6C3107,2417.2,2990.2,2419.1,2923.2,2350.2z"/><path d="M8639.7,2022.8c-88.1-111-17.2-264.2,122.5-264.2c122.5,0,193.4,122.5,135.9,233.6c-32.5,65.1-65.1,80.4-155.1,80.4C8697.1,2072.6,8668.4,2059.2,8639.7,2022.8z"/><path d="M646.9-1069c-36.4-28.7-49.8-57.4-49.8-103.4c0-90,15.3-122.5,80.4-155.1c111-57.4,233.6,13.4,233.6,135.9C911.1-1051.8,757.9-981,646.9-1069z"/><path d="M3621.9-3982.8c-149.3-74.7-97.6-300.6,67-300.6c153.2,0,220.2,178,103.4,275.7C3727.2-3952.2,3692.8-3946.4,3621.9-3982.8z"/><path d="M8714.4-4296.8c-15.3-5.7-47.9-28.7-70.8-49.8c-93.8-84.2-26.8-262.3,99.6-262.3c90,0,122.5,15.3,155.1,80.4c42.1,80.4,19.2,162.7-55.5,208.7C8779.5-4281.5,8762.2-4279.6,8714.4-4296.8z"/></g></g>
</svg>